<?xml version="1.0" encoding="utf-8"?><!-- Uploaded to: SVG Repo, www.svgrepo.com, Generator: SVG Repo Mixer Tools -->
<svg fill="#000000" width="800px" height="800px" viewBox="0 0 24 24" id="plastic-bottle" data-name="Flat Color" xmlns="http://www.w3.org/2000/svg" class="icon flat-color"><path id="primary" d="M16,10.41a4.42,4.42,0,0,0-1.29-3.12A2.37,2.37,0,0,1,14,5.59V3a1,1,0,0,0-1-1H11a1,1,0,0,0-1,1V5.59a2.37,2.37,0,0,1-.71,1.7A4.42,4.42,0,0,0,8,10.41V12a2,2,0,0,0,.27,1A2,2,0,0,0,8,14v2a2,2,0,0,0,.27,1A2,2,0,0,0,8,18v2a2,2,0,0,0,2,2h4a2,2,0,0,0,2-2V18a2,2,0,0,0-.27-1A2,2,0,0,0,16,16V14a2,2,0,0,0-.27-1A2,2,0,0,0,16,12Z" style="fill: rgb(0, 0, 0);"></path><path id="secondary" d="M14,4H10a1,1,0,0,1,0-2h4a1,1,0,0,1,0,2Z" style="fill: rgb(44, 169, 188);"></path></svg>